<?xml version="1.0" encoding="UTF-8"?>
<svg id="Layer_1" data-name="Layer 1" xmlns="http://www.w3.org/2000/svg" version="1.1" viewBox="0 0 1102.3 582.3">
  <defs>
    <style>
      .cls-1 {
        fill: #bbb;
      }

      .cls-1, .cls-2, .cls-3 {
        stroke-width: 0px;
      }

      .cls-2 {
        fill: #727171;
      }

      .cls-4 {
        stroke: #bbb;
        stroke-miterlimit: 10;
        stroke-width: .5px;
      }

      .cls-4, .cls-3 {
        fill: #fff;
      }

      .cls-5 {
        fill: #000;
        font-family: MyriadPro-Regular, 'Myriad Pro';
        font-size: 7px;
      }

      .cls-6 {
        fill: #444;
        font-family: Helvetica, Helvetica;
        font-size: 11px;
        isolation: isolate;
      }
    </style>
  </defs>
  <path class="cls-4" d="M393.9,278.2c-33.3.3,12.9-91.6,12.9-91.6,0,0,14.2,93.8-12.9,91.6h0Z"/>
  <circle class="cls-3" cx="393.9" cy="278.2" r=".2"/>
  <circle class="cls-1" cx="406.8" cy="186.6" r=".2"/>
  <path class="cls-4" d="M453.8,263.1c-22.3.2,8.7-61.4,8.7-61.4,0,0,9.5,62.8-8.7,61.4Z"/>
  <circle class="cls-1" cx="453.8" cy="263.1" r=".2"/>
  <circle class="cls-1" cx="462.5" cy="201.7" r=".2"/>
  <path class="cls-4" d="M513.5,254.8c-16.3.1,6.3-44.8,6.3-44.8,0,0,6.9,45.9-6.3,44.8Z"/>
  <circle class="cls-1" cx="513.5" cy="254.8" r=".2"/>
  <circle class="cls-1" cx="519.8" cy="210" r=".2"/>
  <path class="cls-4" d="M570.2,303.5c-51.6.4,20.1-142.3,20.1-142.3,0,0,22.1,145.7-20.1,142.3Z"/>
  <circle class="cls-1" cx="570.2" cy="303.5" r=".2"/>
  <circle class="cls-1" cx="590.3" cy="161.2" r=".2"/>
  <path class="cls-4" d="M631.8,255.9c-17,.1,6.6-47,6.6-47,0,0,7.3,48.1-6.6,47Z"/>
  <circle class="cls-1" cx="631.8" cy="255.9" r=".2"/>
  <circle class="cls-1" cx="638.5" cy="208.9" r=".2"/>
  <text class="cls-6" transform="translate(387.9 255.9)"><tspan x="0" y="0">1.6</tspan></text>
  <circle class="cls-1" cx="876.3" cy="277.5" r=".2"/>
  <circle class="cls-1" cx="924.2" cy="401.9" r=".2"/>
  <circle class="cls-1" cx="939.4" cy="294.3" r=".2"/>
  <circle class="cls-1" cx="991" cy="404.6" r=".2"/>
  <g>
    <circle class="cls-3" cx="1007" cy="291.6" r=".2"/>
    <path class="cls-2" d="M1007,291.3c0,0,.2-.1.4-.1.2,0,.3.2.3.4-.1.3-.4.2-.7.5-.3.2-.8,0-.8-.5,0-.2.2-.4.4-.4.2,0,.3.1.4.1h0ZM1007,291.4c-.2,0,.2.5.3.2,0-.2-.3-.3-.3,0,0,0,0,.1,0,0,0,0-.2-.1-.2,0,0,0,0,.1.1,0,.1,0,.1-.3,0-.2h0Z"/>
  </g>
  <g>
    <g>
      <path class="cls-3" d="M811.2,399.2c-39.1-33.1,107.2-93.9,107.2-93.9,0,0-77.7,123.8-107.2,93.9Z"/>
      <path class="cls-2" d="M811.2,399.3c-23.3-20,20.8-48.6,36.4-58.3,22.9-13.8,47.1-25.6,71.6-36.3-7,11.1-14.3,21.9-22,32.5-12.7,17.3-62.5,84.9-86,62.1h0ZM811.3,399.2c22.9,22.5,72.3-45.9,85.1-62.6,7.5-10.3,14.9-20.7,21.8-31.4,0,0,.4.4.4.4-24.3,10.3-48.2,22-70.5,36.1-15.2,9.9-59.9,37.5-36.8,57.5h0Z"/>
    </g>
    <text class="cls-5" transform="translate(825.3 358.8) rotate(40.7)"><tspan x="0" y="0">run time</tspan></text>
  </g>
  <g>
    <g>
      <path class="cls-3" d="M904.6,414.1c-39.1.3,15.2-107.7,15.2-107.7,0,0,16.7,110.3-15.2,107.7Z"/>
      <path class="cls-2" d="M904.6,414.1c-30.4,0-3.6-65.1,2.4-80.2,4.1-9.8,8.4-19.5,13.1-29.1,1.5,10.2,2.6,20.4,3.3,30.7.9,16.2,5.8,80.2-18.8,78.7h0ZM904.6,414.1c24.8,1.3,19.1-62.3,18-78.6-.8-9.7-1.8-19.4-3.3-29h.9c-8.8,18.2-16.9,36.8-23.1,56-4.1,13.4-16,51.4,7.4,51.6h0Z"/>
    </g>
    <text class="cls-5" transform="translate(895.2 386.3)"><tspan x="0" y="0">budget</tspan></text>
  </g>
  <g>
    <g>
      <path class="cls-3" d="M1016.8,368.3c-17.3,37.2-95.3-62.9-95.3-62.9,0,0,112.1,33.9,95.3,62.9Z"/>
      <path class="cls-2" d="M1017.3,368.5c-11,22.6-42-5.9-53.2-16-15.7-14.7-29.9-30.9-43.2-47.7,10,3.1,19.9,6.6,29.7,10.4,19.6,7.8,53.3,21.2,65.2,38.6,2.9,4.2,3.8,10,1,14.5,0,0,.4.2.4.2h0ZM1018.4,363.7c1.9-15.9-27.6-30.1-39.7-36.2-18.5-8.8-37.7-15.9-57.2-22,0,0,.3-.4.3-.4,15.7,19.4,57.8,69.6,82.7,70.9,8.3.1,11-5.7,13.9-12.4h0Z"/>
    </g>
    <text class="cls-5" transform="translate(970.9 361.3) rotate(-64.6)"><tspan x="0" y="0">box office</tspan></text>
  </g>
  <g>
    <g>
      <path class="cls-3" d="M1042.3,184.3c49,36.6-120.8,119.6-120.8,119.6,0,0,83.5-153,120.8-119.6Z"/>
      <path class="cls-2" d="M1042.4,184.2c38.1,28.8-57.1,84.5-78.9,97.7-14.4,8.5-29.1,16.6-44.1,24,15.4-27.4,32.3-54,51.4-78.9,12.7-16,49.3-62.5,71.6-42.8h0ZM1042.3,184.3c-12.8-11.4-29.9.3-40.4,9.4-11.5,10-21.3,21.7-30.6,33.7-18.5,24.2-34.7,50-49.6,76.6,34.3-18.1,69.8-37.4,100.1-62.5,14.9-12.7,44-39.2,20.6-57.1h0Z"/>
    </g>
    <text class="cls-5" transform="translate(1003 231.4) rotate(-142.8)"><tspan x="0" y="0">rotten toms</tspan></text>
  </g>
  <g>
    <g>
      <path class="cls-3" d="M893.9,255.5c15-11.2,24.5,46,24.5,46,0,0-37.6-38-24.5-46Z"/>
      <path class="cls-2" d="M893.9,255.4c14.2-10,23.3,37.1,24.9,46,0,0,.2,1.3.2,1.3s-.9-.9-.9-.9c-6.7-6.7-36.2-38.1-24.3-46.3h0ZM894,255.5c-11.7,7.2,18.8,39.1,24.8,45.7,0,0-.7.4-.7.4-1.5-8.5-10.1-56.1-24.1-46h0Z"/>
    </g>
    <text class="cls-5" transform="translate(908.9 258.2) rotate(143.9)"><tspan x="0" y="0">profit</tspan></text>
  </g>
</svg>