<svg xmlns="http://www.w3.org/2000/svg" width="805" height="600"><rect width="805" height="600" x="0" y="0" fill="#FFFFFF" id="background"/><g transform="translate(10,10)" id="visualization"><g><rect x="391" y="0" height="13.945868945868938" width="3" fill="black"><title>Actinopterygii: 66</title></rect><rect x="391" y="18.945868945868938" height="10.56505223171888" width="3" fill="black"><title>Amphibia: 50</title></rect><rect x="0" y="65.00000000000003" height="138.19088319088314" width="3" fill="black"><title>Animalia: 654</title></rect><rect x="391" y="34.51092117758782" height="0.21130104463441057" width="3" fill="black"><title>Anthozoa: 1</title></rect><rect x="391" y="39.72222222222223" height="1.0565052231718823" width="3" fill="black"><title>Arachnida: 5</title></rect><rect x="391" y="45.77872744539411" height="0.42260208926870746" width="3" fill="black"><title>Asteroidea: 2</title></rect><rect x="391" y="51.20132953466282" height="39.09069325735993" width="3" fill="black"><title>Aves: 185</title></rect><rect x="391" y="95.29202279202275" height="0.42260208926870746" width="3" fill="black"><title>Bivalvia: 2</title></rect><rect x="391" y="100.71462488129146" height="0.21130104463441057" width="3" fill="black"><title>Bryopsida: 1</title></rect><rect x="391" y="105.92592592592587" height="0.21130104463441057" width="3" fill="black"><title>Cephalaspidomorphi: 1</title></rect><rect x="391" y="111.13722697056028" height="2.9582146248812933" width="3" fill="black"><title>Chondrichthyes: 14</title></rect><rect x="782" y="55.00000000000006" height="1.6904083570750572" width="3" fill="black"><title>Conservation Dependent: 8</title></rect><rect x="782" y="61.690408357075114" height="83.67521367521368" width="3" fill="black"><title>Critically Endangered: 396</title></rect><rect x="391" y="119.09544159544157" height="3.169515669515647" width="3" fill="black"><title>Cycadatae: 15</title></rect><rect x="782" y="150.3656220322888" height="170.09734093067425" width="3" fill="black"><title>Endangered: 805</title></rect><rect x="782" y="325.46296296296305" height="21.764007597340935" width="3" fill="black"><title>Extinct: 103</title></rect><rect x="782" y="352.226970560304" height="0.2113010446342969" width="3" fill="black"><title>Extinct in the wild: 1</title></rect><rect x="391" y="127.26495726495722" height="4.43732193732194" width="3" fill="black"><title>Gastropoda: 21</title></rect><rect x="391" y="136.70227920227916" height="5.705128205128233" width="3" fill="black"><title>Insecta: 27</title></rect><rect x="391" y="147.4074074074074" height="68.03893637226969" width="3" fill="black"><title>Liliopsida: 322</title></rect><rect x="391" y="220.44634377967708" height="2.1130104463437647" width="3" fill="black"><title>Lycopodopiatae: 10</title></rect><rect x="391" y="227.55935422602084" height="224.61301044634376" width="3" fill="black"><title>Magnoliopsida: 1063</title></rect><rect x="391" y="457.1723646723646" height="7.8181386514719975" width="3" fill="black"><title>Malacostraca: 37</title></rect><rect x="391" y="469.9905033238366" height="31.483855650522344" width="3" fill="black"><title>Mammalia: 149</title></rect><rect x="391" y="506.47435897435895" height="0.633903133903118" width="3" fill="black"><title>Oligochaeta: 3</title></rect><rect x="391" y="512.1082621082621" height="0.21130104463441057" width="3" fill="black"><title>Onychophora (no class): 1</title></rect><rect x="391" y="517.3195631528965" height="1.0565052231719392" width="3" fill="black"><title>Pinatae: 5</title></rect><rect x="0" y="208.19088319088317" height="306.80911680911686" width="3" fill="black"><title>Plantae: 1452</title></rect><rect x="391" y="523.3760683760685" height="6.550332383665705" width="3" fill="black"><title>Polypodiatae: 31</title></rect><rect x="391" y="534.9264007597342" height="0.42260208926870746" width="3" fill="black"><title>Psilotatae: 2</title></rect><rect x="391" y="540.3490028490029" height="0.21130104463441057" width="3" fill="black"><title>Remipedia: 1</title></rect><rect x="391" y="545.5603038936373" height="18.59449192782529" width="3" fill="black"><title>Reptilia: 88</title></rect><rect x="391" y="569.1547958214626" height="0.21130104463441057" width="3" fill="black"><title>Rhodophyceae: 1</title></rect><rect x="391" y="574.366096866097" height="0.21130104463441057" width="3" fill="black"><title>Sarcopterygii: 1</title></rect><rect x="391" y="579.5773979107314" height="0.42260208926870746" width="3" fill="black"><title>Streptophyta (no class): 2</title></rect><rect x="782" y="357.4382716049383" height="167.56172839506172" width="3" fill="black"><title>Vulnerable: 793</title></rect></g><g fill="none" stroke-opacity="0.7"><g style="mix-blend-mode: multiply;"><path d="M3,394.0301519468186C197,394.0301519468186,197,339.8658594491927,391,339.8658594491927" stroke="rgb(94, 79, 162)" stroke-width="224.61301044634376"/><title>Plantae → Magnoliopsida: 1063</title></g><g style="mix-blend-mode: multiply;"><path d="M3,245.59116809116807C197,245.59116809116807,197,181.42687559354223,391,181.42687559354223" stroke="rgb(94, 79, 162)" stroke-width="68.0389363722697"/><title>Plantae → Liliopsida: 322</title></g><g style="mix-blend-mode: multiply;"><path d="M3,110.74667616334285C197,110.74667616334285,197,70.74667616334278,391,70.74667616334278" stroke="rgb(79, 99, 171)" stroke-width="39.09069325735992"/><title>Animalia → Aves: 185</title></g><g style="mix-blend-mode: multiply;"><path d="M3,167.58665716999053C197,167.58665716999053,197,485.73243114909775,391,485.73243114909775" stroke="rgb(79, 99, 171)" stroke-width="31.483855650522315"/><title>Animalia → Mammalia: 149</title></g><g style="mix-blend-mode: multiply;"><path d="M3,193.68233618233626C197,193.68233618233626,197,554.8575498575499,391,554.8575498575499" stroke="rgb(79, 99, 171)" stroke-width="18.59449192782526"/><title>Animalia → Reptilia: 88</title></g><g style="mix-blend-mode: multiply;"><path d="M3,71.9729344729345C197,71.9729344729345,197,6.972934472934472,391,6.972934472934472" stroke="rgb(79, 99, 171)" stroke-width="13.945868945868945"/><title>Animalia → Actinopterygii: 66</title></g><g style="mix-blend-mode: multiply;"><path d="M3,84.22839506172842C197,84.22839506172842,197,24.228395061728385,391,24.228395061728385" stroke="rgb(79, 99, 171)" stroke-width="10.565052231718898"/><title>Animalia → Amphibia: 50</title></g><g style="mix-blend-mode: multiply;"><path d="M3,147.9356600189934C197,147.9356600189934,197,461.0814339981006,391,461.0814339981006" stroke="rgb(79, 99, 171)" stroke-width="7.818138651471984"/><title>Animalia → Malacostraca: 37</title></g><g style="mix-blend-mode: multiply;"><path d="M3,510.6683285849952C197,510.6683285849952,197,526.6512345679014,391,526.6512345679014" stroke="rgb(94, 79, 162)" stroke-width="6.550332383665717"/><title>Plantae → Polypodiatae: 31</title></g><g style="mix-blend-mode: multiply;"><path d="M3,141.1740265906933C197,141.1740265906933,197,139.55484330484327,391,139.55484330484327" stroke="rgb(79, 99, 171)" stroke-width="5.705128205128205"/><title>Animalia → Insecta: 27</title></g><g style="mix-blend-mode: multiply;"><path d="M3,136.10280151946822C197,136.10280151946822,197,129.4836182336182,391,129.4836182336182" stroke="rgb(79, 99, 171)" stroke-width="4.437321937321937"/><title>Animalia → Gastropoda: 21</title></g><g style="mix-blend-mode: multiply;"><path d="M3,209.98694207027538C197,209.98694207027538,197,120.68019943019941,391,120.68019943019941" stroke="rgb(94, 79, 162)" stroke-width="3.169515669515669"/><title>Plantae → Cycadatae: 15</title></g><g style="mix-blend-mode: multiply;"><path d="M3,132.4050332383666C197,132.4050332383666,197,112.61633428300092,391,112.61633428300092" stroke="rgb(79, 99, 171)" stroke-width="2.9582146248812915"/><title>Animalia → Chondrichthyes: 14</title></g><g style="mix-blend-mode: multiply;"><path d="M3,280.6671415004748C197,280.6671415004748,197,221.50284900284896,391,221.50284900284896" stroke="rgb(94, 79, 162)" stroke-width="2.1130104463437798"/><title>Plantae → Lycopodopiatae: 10</title></g><g style="mix-blend-mode: multiply;"><path d="M3,90.25047483380818C197,90.25047483380818,197,40.25047483380818,391,40.25047483380818" stroke="rgb(79, 99, 171)" stroke-width="1.0565052231718899"/><title>Animalia → Arachnida: 5</title></g><g style="mix-blend-mode: multiply;"><path d="M3,506.86490978157644C197,506.86490978157644,197,517.8478157644824,391,517.8478157644824" stroke="rgb(94, 79, 162)" stroke-width="1.0565052231718899"/><title>Plantae → Pinatae: 5</title></g><g style="mix-blend-mode: multiply;"><path d="M3,183.64553656220326C197,183.64553656220326,197,506.7913105413105,391,506.7913105413105" stroke="rgb(79, 99, 171)" stroke-width="1"/><title>Animalia → Oligochaeta: 3</title></g><g style="mix-blend-mode: multiply;"><path d="M3,90.99002849002852C197,90.99002849002852,197,45.990028490028486,391,45.990028490028486" stroke="rgb(79, 99, 171)" stroke-width="1"/><title>Animalia → Asteroidea: 2</title></g><g style="mix-blend-mode: multiply;"><path d="M3,130.5033238366572C197,130.5033238366572,197,95.50332383665713,391,95.50332383665713" stroke="rgb(79, 99, 171)" stroke-width="1"/><title>Animalia → Bivalvia: 2</title></g><g style="mix-blend-mode: multiply;"><path d="M3,514.1547958214625C197,514.1547958214625,197,535.1377018043686,391,535.1377018043686" stroke="rgb(94, 79, 162)" stroke-width="1"/><title>Plantae → Psilotatae: 2</title></g><g style="mix-blend-mode: multiply;"><path d="M3,514.7886989553656C197,514.7886989553656,197,579.7886989553658,391,579.7886989553658" stroke="rgb(94, 79, 162)" stroke-width="1"/><title>Plantae → Streptophyta (no class): 2</title></g><g style="mix-blend-mode: multiply;"><path d="M3,89.61657169990505C197,89.61657169990505,197,34.61657169990501,391,34.61657169990501" stroke="rgb(79, 99, 171)" stroke-width="1"/><title>Animalia → Anthozoa: 1</title></g><g style="mix-blend-mode: multiply;"><path d="M3,208.29653371320035C197,208.29653371320035,197,100.82027540360865,391,100.82027540360865" stroke="rgb(94, 79, 162)" stroke-width="1"/><title>Plantae → Bryopsida: 1</title></g><g style="mix-blend-mode: multiply;"><path d="M3,130.82027540360875C197,130.82027540360875,197,106.03157644824306,391,106.03157644824306" stroke="rgb(79, 99, 171)" stroke-width="1"/><title>Animalia → Cephalaspidomorphi: 1</title></g><g style="mix-blend-mode: multiply;"><path d="M3,184.06813865147203C197,184.06813865147203,197,512.2139126305793,391,512.2139126305793" stroke="rgb(79, 99, 171)" stroke-width="1"/><title>Animalia → Onychophora (no class): 1</title></g><g style="mix-blend-mode: multiply;"><path d="M3,184.2794396961064C197,184.2794396961064,197,540.4546533713201,391,540.4546533713201" stroke="rgb(79, 99, 171)" stroke-width="1"/><title>Animalia → Remipedia: 1</title></g><g style="mix-blend-mode: multiply;"><path d="M3,514.471747388414C197,514.471747388414,197,569.2604463437798,391,569.2604463437798" stroke="rgb(94, 79, 162)" stroke-width="1"/><title>Plantae → Rhodophyceae: 1</title></g><g style="mix-blend-mode: multiply;"><path d="M3,203.08523266856605C197,203.08523266856605,197,574.4717473884142,391,574.4717473884142" stroke="rgb(79, 99, 171)" stroke-width="1"/><title>Animalia → Sarcopterygii: 1</title></g><g style="mix-blend-mode: multiply;"><path d="M394,246.78774928774925C588,246.78774928774925,588,114.5156695156696,782,114.5156695156696" stroke="rgb(248, 249, 176)" stroke-width="38.45679012345679"/><title>Magnoliopsida → Critically Endangered: 182</title></g><g style="mix-blend-mode: multiply;"><path d="M394,308.8046058879392C588,308.8046058879392,588,253.37488129154812,782,253.37488129154812" stroke="rgb(248, 249, 176)" stroke-width="85.57692307692308"/><title>Magnoliopsida → Endangered: 405</title></g><g style="mix-blend-mode: multiply;"><path d="M394,353.7060778727445C588,353.7060778727445,588,334.97150997151005,782,334.97150997151005" stroke="rgb(248, 249, 176)" stroke-width="4.2260208926875595"/><title>Magnoliopsida → Extinct: 20</title></g><g style="mix-blend-mode: multiply;"><path d="M394,403.9957264957265C588,403.9957264957265,588,455.0593542260208,782,455.0593542260208" stroke="rgb(248, 249, 176)" stroke-width="96.35327635327636"/><title>Magnoliopsida → Vulnerable: 456</title></g><g style="mix-blend-mode: multiply;"><path d="M394,154.9085944919278C588,154.9085944919278,588,87.5747863247864,782,87.5747863247864" stroke="rgb(254, 238, 163)" stroke-width="15.002374169040834"/><title>Liliopsida → Critically Endangered: 71</title></g><g style="mix-blend-mode: multiply;"><path d="M394,177.8347578347578C588,177.8347578347578,588,194.52754036087381,782,194.52754036087381" stroke="rgb(254, 238, 163)" stroke-width="30.849952516619183"/><title>Liliopsida → Endangered: 146</title></g><g style="mix-blend-mode: multiply;"><path d="M394,193.9992877492877C588,193.9992877492877,588,331.6963437796772,782,331.6963437796772" stroke="rgb(254, 238, 163)" stroke-width="1.4791073124406457"/><title>Liliopsida → Extinct: 7</title></g><g style="mix-blend-mode: multiply;"><path d="M394,205.09259259259255C588,205.09259259259255,588,395.68376068376057,782,395.68376068376057" stroke="rgb(254, 238, 163)" stroke-width="20.70750237416904"/><title>Liliopsida → Vulnerable: 98</title></g><g style="mix-blend-mode: multiply;"><path d="M394,52.89173789173784C588,52.89173789173784,588,72.4667616334284,782,72.4667616334284" stroke="rgb(234, 97, 73)" stroke-width="3.3808167141500474"/><title>Aves → Critically Endangered: 16</title></g><g style="mix-blend-mode: multiply;"><path d="M394,62.083333333333286C588,62.083333333333286,588,165.6849477682812,782,165.6849477682812" stroke="rgb(234, 97, 73)" stroke-width="15.002374169040834"/><title>Aves → Endangered: 71</title></g><g style="mix-blend-mode: multiply;"><path d="M394,71.90883190883186C588,71.90883190883186,588,328.63247863247875,782,328.63247863247875" stroke="rgb(234, 97, 73)" stroke-width="4.648622981956315"/><title>Aves → Extinct: 22</title></g><g style="mix-blend-mode: multiply;"><path d="M394,82.26258309591638C588,82.26258309591638,588,372.8632478632478,782,372.8632478632478" stroke="rgb(234, 97, 73)" stroke-width="16.058879392212724"/><title>Aves → Vulnerable: 76</title></g><g style="mix-blend-mode: multiply;"><path d="M394,470.9413580246913C588,470.9413580246913,588,137.44183285849962,782,137.44183285849962" stroke="rgb(230, 245, 163)" stroke-width="1.9017094017094016"/><title>Mammalia → Critically Endangered: 9</title></g><g style="mix-blend-mode: multiply;"><path d="M394,476.7521367521367C588,476.7521367521367,588,305.24928774928793,782,305.24928774928793" stroke="rgb(230, 245, 163)" stroke-width="9.719848053181385"/><title>Mammalia → Endangered: 46</title></g><g style="mix-blend-mode: multiply;"><path d="M394,485.7324311490978C588,485.7324311490978,588,341.20489078822425,782,341.20489078822425" stroke="rgb(230, 245, 163)" stroke-width="8.24074074074074"/><title>Mammalia → Extinct: 39</title></g><g style="mix-blend-mode: multiply;"><path d="M394,495.66358024691357C588,495.66358024691357,588,509.8919753086419,782,509.8919753086419" stroke="rgb(230, 245, 163)" stroke-width="11.621557454890787"/><title>Mammalia → Vulnerable: 55</title></g><g style="mix-blend-mode: multiply;"><path d="M394,548.3072174738842C588,548.3072174738842,588,142.40740740740753,782,142.40740740740753" stroke="rgb(89, 176, 173)" stroke-width="5.493827160493827"/><title>Reptilia → Critically Endangered: 26</title></g><g style="mix-blend-mode: multiply;"><path d="M394,554.4349477682812C588,554.4349477682812,588,316.87084520417875,782,316.87084520417875" stroke="rgb(89, 176, 173)" stroke-width="6.761633428300095"/><title>Reptilia → Endangered: 32</title></g><g style="mix-blend-mode: multiply;"><path d="M394,557.9214150047485C588,557.9214150047485,588,346.9100189933524,782,346.9100189933524" stroke="rgb(89, 176, 173)" stroke-width="1"/><title>Reptilia → Extinct: 1</title></g><g style="mix-blend-mode: multiply;"><path d="M394,561.0909306742642C588,561.0909306742642,588,521.7248338081672,782,521.7248338081672" stroke="rgb(89, 176, 173)" stroke-width="6.127730294396961"/><title>Reptilia → Vulnerable: 29</title></g><g style="mix-blend-mode: multiply;"><path d="M394,0.4226020892687559C588,0.4226020892687559,588,55.422602089268814,782,55.422602089268814" stroke="rgb(158, 1, 66)" stroke-width="1"/><title>Actinopterygii → Conservation Dependent: 4</title></g><g style="mix-blend-mode: multiply;"><path d="M394,3.275166191832858C588,3.275166191832858,588,64.12037037037047,782,64.12037037037047" stroke="rgb(158, 1, 66)" stroke-width="4.859924026590693"/><title>Actinopterygii → Critically Endangered: 23</title></g><g style="mix-blend-mode: multiply;"><path d="M394,8.135090218423551C588,8.135090218423551,588,152.79558404558415,782,152.79558404558415" stroke="rgb(158, 1, 66)" stroke-width="4.859924026590693"/><title>Actinopterygii → Endangered: 23</title></g><g style="mix-blend-mode: multiply;"><path d="M394,10.670702754036087C588,10.670702754036087,588,352.3326210826212,782,352.3326210826212" stroke="rgb(158, 1, 66)" stroke-width="1"/><title>Actinopterygii → Extinct in the wild: 1</title></g><g style="mix-blend-mode: multiply;"><path d="M394,12.36111111111111C588,12.36111111111111,588,359.02302943969613,782,359.02302943969613" stroke="rgb(158, 1, 66)" stroke-width="3.169515669515669"/><title>Actinopterygii → Vulnerable: 15</title></g><g style="mix-blend-mode: multiply;"><path d="M394,20.847578347578338C588,20.847578347578338,588,68.4520417853752,782,68.4520417853752" stroke="rgb(177, 22, 70)" stroke-width="3.8034188034188032"/><title>Amphibia → Critically Endangered: 18</title></g><g style="mix-blend-mode: multiply;"><path d="M394,23.91144349477682C588,23.91144349477682,588,156.3877018043686,782,156.3877018043686" stroke="rgb(177, 22, 70)" stroke-width="2.3243114909781575"/><title>Amphibia → Endangered: 11</title></g><g style="mix-blend-mode: multiply;"><path d="M394,25.496201329534657C588,25.496201329534657,588,325.8855650522318,782,325.8855650522318" stroke="rgb(177, 22, 70)" stroke-width="1"/><title>Amphibia → Extinct: 4</title></g><g style="mix-blend-mode: multiply;"><path d="M394,27.714862298195623C588,27.714862298195623,588,362.40384615384613,782,362.40384615384613" stroke="rgb(177, 22, 70)" stroke-width="3.5921177587844255"/><title>Amphibia → Vulnerable: 17</title></g><g style="mix-blend-mode: multiply;"><path d="M394,458.54582146248805C588,458.54582146248805,588,135.11752136752148,782,135.11752136752148" stroke="rgb(241, 249, 170)" stroke-width="2.7469135802469133"/><title>Malacostraca → Critically Endangered: 13</title></g><g style="mix-blend-mode: multiply;"><path d="M394,462.0322886989553C588,462.0322886989553,588,298.2763532763534,782,298.2763532763534" stroke="rgb(241, 249, 170)" stroke-width="4.2260208926875595"/><title>Malacostraca → Endangered: 20</title></g><g style="mix-blend-mode: multiply;"><path d="M394,464.5679012345679C588,464.5679012345679,588,503.6585944919278,782,503.6585944919278" stroke="rgb(241, 249, 170)" stroke-width="1"/><title>Malacostraca → Vulnerable: 4</title></g><g style="mix-blend-mode: multiply;"><path d="M394,523.6930199430201C588,523.6930199430201,588,139.34354226020903,782,139.34354226020903" stroke="rgb(154, 214, 163)" stroke-width="1"/><title>Polypodiatae → Critically Endangered: 3</title></g><g style="mix-blend-mode: multiply;"><path d="M394,525.383428300095C588,525.383428300095,588,312.1165716999052,782,312.1165716999052" stroke="rgb(154, 214, 163)" stroke-width="2.7469135802469133"/><title>Polypodiatae → Endangered: 13</title></g><g style="mix-blend-mode: multiply;"><path d="M394,527.2851377018044C588,527.2851377018044,588,346.06481481481495,782,346.06481481481495" stroke="rgb(154, 214, 163)" stroke-width="1.0565052231718899"/><title>Polypodiatae → Extinct: 5</title></g><g style="mix-blend-mode: multiply;"><path d="M394,528.8698955365624C588,528.8698955365624,588,517.1818613485281,782,517.1818613485281" stroke="rgb(154, 214, 163)" stroke-width="2.1130104463437798"/><title>Polypodiatae → Vulnerable: 10</title></g><g style="mix-blend-mode: multiply;"><path d="M394,137.97008547008542C588,137.97008547008542,588,78.80579297245973,782,78.80579297245973" stroke="rgb(254, 226, 147)" stroke-width="2.5356125356125356"/><title>Insecta → Critically Endangered: 12</title></g><g style="mix-blend-mode: multiply;"><path d="M394,140.29439696106357C588,140.29439696106357,588,178.04605887939232,782,178.04605887939232" stroke="rgb(254, 226, 147)" stroke-width="2.1130104463437798"/><title>Insecta → Endangered: 10</title></g><g style="mix-blend-mode: multiply;"><path d="M394,141.87915479582142C588,141.87915479582142,588,384.80175688509013,782,384.80175688509013" stroke="rgb(254, 226, 147)" stroke-width="1.0565052231718899"/><title>Insecta → Vulnerable: 5</title></g><g style="mix-blend-mode: multiply;"><path d="M394,128.6384140550807C588,128.6384140550807,588,76.16452991453001,782,76.16452991453001" stroke="rgb(254, 212, 131)" stroke-width="2.7469135802469133"/><title>Gastropoda → Critically Endangered: 13</title></g><g style="mix-blend-mode: multiply;"><path d="M394,130.85707502374163C588,130.85707502374163,588,176.1443494776829,782,176.1443494776829" stroke="rgb(254, 212, 131)" stroke-width="1.6904083570750237"/><title>Gastropoda → Endangered: 8</title></g><g style="mix-blend-mode: multiply;"><path d="M394,119.8349952516619C588,119.8349952516619,588,174.55959164292508,782,174.55959164292508" stroke="rgb(253, 196, 116)" stroke-width="1.4791073124406457"/><title>Cycadatae → Endangered: 7</title></g><g style="mix-blend-mode: multiply;"><path d="M394,121.41975308641973C588,121.41975308641973,588,383.4283000949667,782,383.4283000949667" stroke="rgb(253, 196, 116)" stroke-width="1.6904083570750237"/><title>Cycadatae → Vulnerable: 8</title></g><g style="mix-blend-mode: multiply;"><path d="M394,111.55982905982903C588,111.55982905982903,588,56.26780626780633,782,56.26780626780633" stroke="rgb(252, 177, 103)" stroke-width="1"/><title>Chondrichthyes → Conservation Dependent: 4</title></g><g style="mix-blend-mode: multiply;"><path d="M394,112.19373219373217C588,112.19373219373217,588,74.57977207977218,782,74.57977207977218" stroke="rgb(252, 177, 103)" stroke-width="1"/><title>Chondrichthyes → Critically Endangered: 2</title></g><g style="mix-blend-mode: multiply;"><path d="M394,112.61633428300092C588,112.61633428300092,588,173.60873694207038,782,173.60873694207038" stroke="rgb(252, 177, 103)" stroke-width="1"/><title>Chondrichthyes → Endangered: 2</title></g><g style="mix-blend-mode: multiply;"><path d="M394,113.46153846153842C588,113.46153846153842,588,381.949192782526,782,381.949192782526" stroke="rgb(252, 177, 103)" stroke-width="1.2678062678062678"/><title>Chondrichthyes → Vulnerable: 6</title></g><g style="mix-blend-mode: multiply;"><path d="M394,220.55199430199426C588,220.55199430199426,588,95.18162393162402,782,95.18162393162402" stroke="rgb(252, 246, 173)" stroke-width="1"/><title>Lycopodopiatae → Critically Endangered: 1</title></g><g style="mix-blend-mode: multiply;"><path d="M394,220.97459639126302C588,220.97459639126302,588,210.269468186135,782,210.269468186135" stroke="rgb(252, 246, 173)" stroke-width="1"/><title>Lycopodopiatae → Endangered: 3</title></g><g style="mix-blend-mode: multiply;"><path d="M394,221.502849002849C588,221.502849002849,588,332.64719848053187,782,332.64719848053187" stroke="rgb(252, 246, 173)" stroke-width="1"/><title>Lycopodopiatae → Extinct: 2</title></g><g style="mix-blend-mode: multiply;"><path d="M394,222.13675213675214C588,222.13675213675214,588,406.46011396011386,782,406.46011396011386" stroke="rgb(252, 246, 173)" stroke-width="1"/><title>Lycopodopiatae → Vulnerable: 4</title></g><g style="mix-blend-mode: multiply;"><path d="M394,39.82787274453942C588,39.82787274453942,588,70.4594017094018,782,70.4594017094018" stroke="rgb(210, 62, 75)" stroke-width="1"/><title>Arachnida → Critically Endangered: 1</title></g><g style="mix-blend-mode: multiply;"><path d="M394,40.14482431149098C588,40.14482431149098,588,157.9724596391264,782,157.9724596391264" stroke="rgb(210, 62, 75)" stroke-width="1"/><title>Arachnida → Endangered: 2</title></g><g style="mix-blend-mode: multiply;"><path d="M394,40.567426400759736C588,40.567426400759736,588,364.4112060778727,782,364.4112060778727" stroke="rgb(210, 62, 75)" stroke-width="1"/><title>Arachnida → Vulnerable: 2</title></g><g style="mix-blend-mode: multiply;"><path d="M394,517.530864197531C588,517.530864197531,588,138.8152896486231,782,138.8152896486231" stroke="rgb(176, 223, 161)" stroke-width="1"/><title>Pinatae → Critically Endangered: 2</title></g><g style="mix-blend-mode: multiply;"><path d="M394,517.9534662867997C588,517.9534662867997,588,310.53181386514734,782,310.53181386514734" stroke="rgb(176, 223, 161)" stroke-width="1"/><title>Pinatae → Endangered: 2</title></g><g style="mix-blend-mode: multiply;"><path d="M394,518.2704178537512C588,518.2704178537512,588,516.0197056030389,782,516.0197056030389" stroke="rgb(176, 223, 161)" stroke-width="1"/><title>Pinatae → Vulnerable: 1</title></g><g style="mix-blend-mode: multiply;"><path d="M394,506.58000949667615C588,506.58000949667615,588,138.4983380816715,782,138.4983380816715" stroke="rgb(215, 239, 159)" stroke-width="1"/><title>Oligochaeta → Critically Endangered: 1</title></g><g style="mix-blend-mode: multiply;"><path d="M394,506.7913105413105C588,506.7913105413105,588,345.43091168091183,782,345.43091168091183" stroke="rgb(215, 239, 159)" stroke-width="1"/><title>Oligochaeta → Extinct: 1</title></g><g style="mix-blend-mode: multiply;"><path d="M394,507.00261158594486C588,507.00261158594486,588,515.8084045584045,782,515.8084045584045" stroke="rgb(215, 239, 159)" stroke-width="1"/><title>Oligochaeta → Vulnerable: 1</title></g><g style="mix-blend-mode: multiply;"><path d="M394,45.8843779677113C588,45.8843779677113,588,70.67070275403618,782,70.67070275403618" stroke="rgb(224, 79, 74)" stroke-width="1"/><title>Asteroidea → Critically Endangered: 1</title></g><g style="mix-blend-mode: multiply;"><path d="M394,46.09567901234568C588,46.09567901234568,588,364.7281576448243,782,364.7281576448243" stroke="rgb(224, 79, 74)" stroke-width="1"/><title>Asteroidea → Vulnerable: 1</title></g><g style="mix-blend-mode: multiply;"><path d="M394,95.39767331433994C588,95.39767331433994,588,74.26282051282061,782,74.26282051282061" stroke="rgb(242, 116, 75)" stroke-width="1"/><title>Bivalvia → Critically Endangered: 1</title></g><g style="mix-blend-mode: multiply;"><path d="M394,95.60897435897432C588,95.60897435897432,588,380.99833808167136,782,380.99833808167136" stroke="rgb(242, 116, 75)" stroke-width="1"/><title>Bivalvia → Vulnerable: 1</title></g><g style="mix-blend-mode: multiply;"><path d="M394,535.0320512820514C588,535.0320512820514,588,346.69871794871807,782,346.69871794871807" stroke="rgb(131, 204, 165)" stroke-width="1"/><title>Psilotatae → Extinct: 1</title></g><g style="mix-blend-mode: multiply;"><path d="M394,535.2433523266858C588,535.2433523266858,588,518.3440170940171,782,518.3440170940171" stroke="rgb(131, 204, 165)" stroke-width="1"/><title>Psilotatae → Vulnerable: 1</title></g><g style="mix-blend-mode: multiply;"><path d="M394,579.6830484330486C588,579.6830484330486,588,145.25997150997162,782,145.25997150997162" stroke="rgb(69, 118, 178)" stroke-width="1"/><title>Streptophyta (no class) → Critically Endangered: 1</title></g><g style="mix-blend-mode: multiply;"><path d="M394,579.894349477683C588,579.894349477683,588,320.357312440646,782,320.357312440646" stroke="rgb(69, 118, 178)" stroke-width="1"/><title>Streptophyta (no class) → Endangered: 1</title></g><g style="mix-blend-mode: multiply;"><path d="M394,34.61657169990501C588,34.61657169990501,588,157.65550807217483,782,157.65550807217483" stroke="rgb(195, 42, 74)" stroke-width="1"/><title>Anthozoa → Endangered: 1</title></g><g style="mix-blend-mode: multiply;"><path d="M394,100.82027540360865C588,100.82027540360865,588,381.2096391263057,782,381.2096391263057" stroke="rgb(247, 136, 81)" stroke-width="1"/><title>Bryopsida → Vulnerable: 1</title></g><g style="mix-blend-mode: multiply;"><path d="M394,106.03157644824306C588,106.03157644824306,588,173.2917853751188,782,173.2917853751188" stroke="rgb(250, 157, 91)" stroke-width="1"/><title>Cephalaspidomorphi → Endangered: 1</title></g><g style="mix-blend-mode: multiply;"><path d="M394,512.2139126305793C588,512.2139126305793,588,310.21486229819584,782,310.21486229819584" stroke="rgb(197, 231, 159)" stroke-width="1"/><title>Onychophora (no class) → Endangered: 1</title></g><g style="mix-blend-mode: multiply;"><path d="M394,540.4546533713201C588,540.4546533713201,588,518.5553181386515,782,518.5553181386515" stroke="rgb(109, 192, 168)" stroke-width="1"/><title>Remipedia → Vulnerable: 1</title></g><g style="mix-blend-mode: multiply;"><path d="M394,569.2604463437798C588,569.2604463437798,588,347.1213200379868,782,347.1213200379868" stroke="rgb(74, 158, 178)" stroke-width="1"/><title>Rhodophyceae → Extinct: 1</title></g><g style="mix-blend-mode: multiply;"><path d="M394,574.4717473884142C588,574.4717473884142,588,524.8943494776829,782,524.8943494776829" stroke="rgb(66, 138, 181)" stroke-width="1"/><title>Sarcopterygii → Vulnerable: 1</title></g></g><g><text x="398" y="6.972934472934469" text-anchor="start"><tspan alignment-baseline="middle" x="398" style="font-family: Arial, sans-serif; font-size: 10px; fill: black; font-weight: bold;">Actinopterygii</tspan></text><text x="398" y="24.228395061728378" text-anchor="start"><tspan alignment-baseline="middle" x="398" style="font-family: Arial, sans-serif; font-size: 10px; fill: black; font-weight: bold;">Amphibia</tspan></text><text x="7" y="134.0954415954416" text-anchor="start"><tspan alignment-baseline="middle" x="7" style="font-family: Arial, sans-serif; font-size: 10px; fill: black; font-weight: bold;">Animalia</tspan></text><text x="398" y="34.61657169990502" text-anchor="start"><tspan alignment-baseline="middle" x="398" style="font-family: Arial, sans-serif; font-size: 10px; fill: black; font-weight: bold;">Anthozoa</tspan></text><text x="398" y="40.25047483380817" text-anchor="start"><tspan alignment-baseline="middle" x="398" style="font-family: Arial, sans-serif; font-size: 10px; fill: black; font-weight: bold;">Arachnida</tspan></text><text x="398" y="45.990028490028465" text-anchor="start"><tspan alignment-baseline="middle" x="398" style="font-family: Arial, sans-serif; font-size: 10px; fill: black; font-weight: bold;">Asteroidea</tspan></text><text x="398" y="70.74667616334278" text-anchor="start"><tspan alignment-baseline="middle" x="398" style="font-family: Arial, sans-serif; font-size: 10px; fill: black; font-weight: bold;">Aves</tspan></text><text x="398" y="95.5033238366571" text-anchor="start"><tspan alignment-baseline="middle" x="398" style="font-family: Arial, sans-serif; font-size: 10px; fill: black; font-weight: bold;">Bivalvia</tspan></text><text x="398" y="100.82027540360866" text-anchor="start"><tspan alignment-baseline="middle" x="398" style="font-family: Arial, sans-serif; font-size: 10px; fill: black; font-weight: bold;">Bryopsida</tspan></text><text x="398" y="106.03157644824307" text-anchor="start"><tspan alignment-baseline="middle" x="398" style="font-family: Arial, sans-serif; font-size: 10px; fill: black; font-weight: bold;">Cephalaspidomorphi</tspan></text><text x="398" y="112.61633428300092" text-anchor="start"><tspan alignment-baseline="middle" x="398" style="font-family: Arial, sans-serif; font-size: 10px; fill: black; font-weight: bold;">Chondrichthyes</tspan></text><text x="778" y="55.845204178537585" text-anchor="end"><tspan alignment-baseline="middle" x="778" style="font-family: Arial, sans-serif; font-size: 10px; fill: black; font-weight: bold;">Conservation Dependent</tspan></text><text x="778" y="103.52801519468196" text-anchor="end"><tspan alignment-baseline="middle" x="778" style="font-family: Arial, sans-serif; font-size: 10px; fill: black; font-weight: bold;">Critically Endangered</tspan></text><text x="398" y="120.6801994301994" text-anchor="start"><tspan alignment-baseline="middle" x="398" style="font-family: Arial, sans-serif; font-size: 10px; fill: black; font-weight: bold;">Cycadatae</tspan></text><text x="778" y="235.41429249762592" text-anchor="end"><tspan alignment-baseline="middle" x="778" style="font-family: Arial, sans-serif; font-size: 10px; fill: black; font-weight: bold;">Endangered</tspan></text><text x="778" y="336.3449667616335" text-anchor="end"><tspan alignment-baseline="middle" x="778" style="font-family: Arial, sans-serif; font-size: 10px; fill: black; font-weight: bold;">Extinct</tspan></text><text x="778" y="352.33262108262113" text-anchor="end"><tspan alignment-baseline="middle" x="778" style="font-family: Arial, sans-serif; font-size: 10px; fill: black; font-weight: bold;">Extinct in the wild</tspan></text><text x="398" y="129.4836182336182" text-anchor="start"><tspan alignment-baseline="middle" x="398" style="font-family: Arial, sans-serif; font-size: 10px; fill: black; font-weight: bold;">Gastropoda</tspan></text><text x="398" y="139.55484330484327" text-anchor="start"><tspan alignment-baseline="middle" x="398" style="font-family: Arial, sans-serif; font-size: 10px; fill: black; font-weight: bold;">Insecta</tspan></text><text x="398" y="181.42687559354223" text-anchor="start"><tspan alignment-baseline="middle" x="398" style="font-family: Arial, sans-serif; font-size: 10px; fill: black; font-weight: bold;">Liliopsida</tspan></text><text x="398" y="221.50284900284896" text-anchor="start"><tspan alignment-baseline="middle" x="398" style="font-family: Arial, sans-serif; font-size: 10px; fill: black; font-weight: bold;">Lycopodopiatae</tspan></text><text x="398" y="339.8658594491927" text-anchor="start"><tspan alignment-baseline="middle" x="398" style="font-family: Arial, sans-serif; font-size: 10px; fill: black; font-weight: bold;">Magnoliopsida</tspan></text><text x="398" y="461.0814339981006" text-anchor="start"><tspan alignment-baseline="middle" x="398" style="font-family: Arial, sans-serif; font-size: 10px; fill: black; font-weight: bold;">Malacostraca</tspan></text><text x="398" y="485.7324311490978" text-anchor="start"><tspan alignment-baseline="middle" x="398" style="font-family: Arial, sans-serif; font-size: 10px; fill: black; font-weight: bold;">Mammalia</tspan></text><text x="398" y="506.7913105413105" text-anchor="start"><tspan alignment-baseline="middle" x="398" style="font-family: Arial, sans-serif; font-size: 10px; fill: black; font-weight: bold;">Oligochaeta</tspan></text><text x="398" y="512.2139126305793" text-anchor="start"><tspan alignment-baseline="middle" x="398" style="font-family: Arial, sans-serif; font-size: 10px; fill: black; font-weight: bold;">Onychophora (no class)</tspan></text><text x="398" y="517.8478157644824" text-anchor="start"><tspan alignment-baseline="middle" x="398" style="font-family: Arial, sans-serif; font-size: 10px; fill: black; font-weight: bold;">Pinatae</tspan></text><text x="7" y="361.59544159544157" text-anchor="start"><tspan alignment-baseline="middle" x="7" style="font-family: Arial, sans-serif; font-size: 10px; fill: black; font-weight: bold;">Plantae</tspan></text><text x="398" y="526.6512345679014" text-anchor="start"><tspan alignment-baseline="middle" x="398" style="font-family: Arial, sans-serif; font-size: 10px; fill: black; font-weight: bold;">Polypodiatae</tspan></text><text x="398" y="535.1377018043686" text-anchor="start"><tspan alignment-baseline="middle" x="398" style="font-family: Arial, sans-serif; font-size: 10px; fill: black; font-weight: bold;">Psilotatae</tspan></text><text x="398" y="540.4546533713201" text-anchor="start"><tspan alignment-baseline="middle" x="398" style="font-family: Arial, sans-serif; font-size: 10px; fill: black; font-weight: bold;">Remipedia</tspan></text><text x="398" y="554.8575498575499" text-anchor="start"><tspan alignment-baseline="middle" x="398" style="font-family: Arial, sans-serif; font-size: 10px; fill: black; font-weight: bold;">Reptilia</tspan></text><text x="398" y="569.2604463437798" text-anchor="start"><tspan alignment-baseline="middle" x="398" style="font-family: Arial, sans-serif; font-size: 10px; fill: black; font-weight: bold;">Rhodophyceae</tspan></text><text x="398" y="574.4717473884142" text-anchor="start"><tspan alignment-baseline="middle" x="398" style="font-family: Arial, sans-serif; font-size: 10px; fill: black; font-weight: bold;">Sarcopterygii</tspan></text><text x="398" y="579.7886989553658" text-anchor="start"><tspan alignment-baseline="middle" x="398" style="font-family: Arial, sans-serif; font-size: 10px; fill: black; font-weight: bold;">Streptophyta (no class)</tspan></text><text x="778" y="441.21913580246917" text-anchor="end"><tspan alignment-baseline="middle" x="778" style="font-family: Arial, sans-serif; font-size: 10px; fill: black; font-weight: bold;">Vulnerable</tspan></text></g><g><text x="392.5" y="-4" text-anchor="middle" style="font-family: Arial, sans-serif; font-size: 12px; fill: rgb(123, 123, 123); font-weight: bold;">class</text><text x="1.5" y="61.00000000000003" text-anchor="middle" style="font-family: Arial, sans-serif; font-size: 12px; fill: rgb(123, 123, 123); font-weight: bold;">kingdom</text><text x="783.5" y="51.00000000000006" text-anchor="middle" style="font-family: Arial, sans-serif; font-size: 12px; fill: rgb(123, 123, 123); font-weight: bold;">threatened_status</text></g></g></svg>