<svg xmlns="http://www.w3.org/2000/svg" width="805" height="600"><rect width="805" height="600" x="0" y="0" fill="#FFFFFF" id="background"/><g transform="translate(402.5,300)" id="chord_diagram"><g><g><path fill="#ff7f0e" d="M1.5308084989341916e-14,-250A250,250,0,0,1,221.71498301749546,115.5095939978654L212.84638369679564,110.88921023795078A240,240,0,0,0,1.469576158976824e-14,-240Z"/></g><g><path fill="#cccccc" d="M216.7110426882502,124.64479121476116A250,250,0,0,1,117.53505015312314,220.64793673520455L112.83364814699821,211.82201926579637A240,240,0,0,0,208.04260098072018,119.6589995661707Z"/></g><g><path fill="#cccccc" d="M108.24203390202312,225.35230661511605A250,250,0,0,1,-159.01016330027812,192.9138874400153L-152.649756768267,185.19733194241468A240,240,0,0,0,103.9123525459422,216.3382143505114Z"/></g><g><path fill="#cccccc" d="M-166.90790662532817,186.12294513560312A250,250,0,0,1,-192.1292912026494,159.95729261889733L-184.44411955454342,153.55900091414142A240,240,0,0,0,-160.23159036031504,178.678027330179Z"/></g><g><path fill="#cccccc" d="M-198.62549529393124,151.81538992882278A250,250,0,0,1,-223.16554078658413,-112.68159301958532L-214.23891915512075,-108.17432929880191A240,240,0,0,0,-190.680475482174,145.7427743316699Z"/></g><g><path fill="#1f77b4" d="M-218.27814075651852,-121.87966716346698A250,250,0,0,1,-34.31962080615519,-247.6331230423784L-32.94683597390899,-237.72779812068325A240,240,0,0,0,-209.54701512625778,-117.0044804769283Z"/></g><g><path fill="#cccccc" d="M-23.974772271853176,-248.8477652994151A250,250,0,0,1,-21.161131528383887,-249.10280310032329L-20.314686267248533,-239.13869097631036A240,240,0,0,0,-23.01578138097905,-238.8938546874385Z"/></g><g><path fill="#cccccc" d="M-10.766484689690524,-249.7680580206898A250,250,0,0,1,-10.413652846504005,-249.7830175059796L-9.997106732643845,-239.7916968057404A240,240,0,0,0,-10.335825302102903,-239.7773356998622Z"/></g></g><g fill-opacity="0.7"><path fill="#1f77b4" d="M-208.59155485671565,-116.66431863452424Q0,0,-9.107461412221559,-214.80701605540003L-9.954667124986356,-234.78906406055353L-9.107461412221559,-214.80701605540003Q0,0,-208.59155485671565,-116.66431863452424Z"/><path fill="#1f77b4" d="M-208.26529323948563,-117.24575741523043A239,239,0,0,1,-207.42355790621937,-118.72854595894475Q0,0,-20.172407485585186,-214.05156849748965L-21.214213436331836,-234.04050322172392L-18.644842487030342,-214.1900320944787Q0,0,-208.26529323948563,-117.24575741523043Z"/><path fill="#ff7f0e" d="M0.4979163064840103,-238.99948133699314A239,239,0,0,1,11.651434310177917,-238.71582284908476Q0,0,-158.32841071842358,145.45485333730937L-176.72041014111994,154.90286194759074L-164.94424191781408,137.90720451868214Q0,0,0.4979163064840103,-238.99948133699314Z"/><path fill="#1f77b4" d="M-206.92705651370645,-119.59177765454167A239,239,0,0,1,-195.2750926357817,-137.79926776324638Q0,0,-143.87395822989905,159.76634233549086L-164.9939425018246,167.33797816904746L-157.72097620659105,146.11329051267012Q0,0,-206.92705651370645,-119.59177765454167Z"/><path fill="#1f77b4" d="M-194.6992355876153,-138.61171545579498A239,239,0,0,1,-165.372128131892,-172.5487155476073Q0,0,135.1034268692237,167.24850985342837L129.86599685839676,195.8566385394554L101.47525104116116,189.54623031369766Q0,0,-194.6992355876153,-138.61171545579498Z"/><path fill="#1f77b4" d="M-164.6517417108769,-173.236266271167A239,239,0,0,1,-106.50355324782201,-213.95792377378393Q0,0,-211.9957708203,-35.816101885979094L-223.33272088699306,-73.1265737007585L-192.12383628654342,-96.5061217257302Q0,0,-164.6517417108769,-173.236266271167Z"/><path fill="#1f77b4" d="M-105.61113996963583,-214.39983002398577A239,239,0,0,1,-33.30268856936686,-236.66839868062607Q0,0,-77.62060646371413,200.49947993001186L-118.45963094914602,202.95890183825918L-136.40280654295054,166.19047616276455Q0,0,-105.61113996963583,-214.39983002398577Z"/><path fill="#ff7f0e" d="M12.645979553239089,-238.66520316363477A239,239,0,0,1,96.59087711836524,-218.61199065354322Q0,0,186.14777050396202,107.58256148839494L178.88787070230285,152.39465120402414L135.7991208727727,166.68412872910866Q0,0,12.645979553239089,-238.66520316363477Z"/><path fill="#ff7f0e" d="M97.50091931583772,-218.2076321592957A239,239,0,0,1,225.34355243041722,-79.63217551994798Q0,0,92.68419121765056,193.9964966135471L9.456001953531578,234.8096761785059L-76.78452059227908,200.82115774343566Q0,0,97.50091931583772,-218.2076321592957Z"/><path fill="#ff7f0e" d="M225.67339609728367,-78.6925555177776A239,239,0,0,1,212.18912022491415,109.98535019800103Q0,0,-171.08955763115227,130.20508158123715L-228.05828236833506,56.695853844921956L-212.1431639079442,-34.93247782690365Q0,0,225.67339609728367,-78.6925555177776Z"/></g><g><g id="Plantae" transform="rotate(-31.240640703268255) translate(250,0)"><text x="8" dy="0.35em" style="font-family: Arial, sans-serif; font-size: 10px; fill: black; font-weight: bold;">Plantae (1452)</text></g><g id="Critically Endangered" transform="rotate(45.931322548041464) translate(250,0)"><text x="8" dy="0.35em" style="font-family: Arial, sans-serif; font-size: 10px; fill: black; font-weight: bold;">Critically Endangered (396)</text></g><g id="Endangered" transform="rotate(96.92056853696454) translate(250,0)"><text x="8" dy="0.35em" transform="rotate(180) translate(-16)" text-anchor="end" style="font-family: Arial, sans-serif; font-size: 10px; fill: black; font-weight: bold;">Endangered (805)</text></g><g id="Extinct" transform="rotate(136.05272618295206) translate(250,0)"><text x="8" dy="0.35em" transform="rotate(180) translate(-16)" text-anchor="end" style="font-family: Arial, sans-serif; font-size: 10px; fill: black; font-weight: bold;">Extinct (103)</text></g><g id="Vulnerable" transform="rotate(174.6992692892972) translate(250,0)"><text x="8" dy="0.35em" transform="rotate(180) translate(-16)" text-anchor="end" style="font-family: Arial, sans-serif; font-size: 10px; fill: black; font-weight: bold;">Vulnerable (793)</text></g><g id="Animalia" transform="rotate(235.64361334088983) translate(250,0)"><text x="8" dy="0.35em" transform="rotate(180) translate(-16)" text-anchor="end" style="font-family: Arial, sans-serif; font-size: 10px; fill: black; font-weight: bold;">Animalia (654)</text></g><g id="Conservation Dependent" transform="rotate(264.82067292420794) translate(250,0)"><text x="8" dy="0.35em" transform="rotate(180) translate(-16)" text-anchor="end" style="font-family: Arial, sans-serif; font-size: 10px; fill: black; font-weight: bold;">Conservation Dependent (8)</text></g><g id="Extinct in the wild" transform="rotate(267.5722079753182) translate(250,0)"><text x="8" dy="0.35em" transform="rotate(180) translate(-16)" text-anchor="end" style="font-family: Arial, sans-serif; font-size: 10px; fill: black; font-weight: bold;">Extinct in the wild (1)</text></g></g></g></svg>