<svg xmlns="http://www.w3.org/2000/svg" width="900" height="800"><rect width="900" height="800" x="0" y="0" fill="#FFFFFF" id="background"/><g transform="translate(10,10)" id="viz"><g id="links"><path d="M0,366.20255763371347C123.33333333333333,366.20255763371347,123.33333333333333,161.6099639139077,246.66666666666666,161.6099639139077" fill="none" stroke="#ccc"/><path d="M0,366.20255763371347C123.33333333333333,366.20255763371347,123.33333333333333,570.7951513535193,246.66666666666666,570.7951513535193" fill="none" stroke="#ccc"/><path d="M246.66666666666666,161.6099639139077C370,161.6099639139077,370,47.85239116200074,493.3333333333333,47.85239116200074" fill="none" stroke="#ccc"/><path d="M246.66666666666666,161.6099639139077C370,161.6099639139077,370,139.90825196393467,493.3333333333333,139.90825196393467" fill="none" stroke="#ccc"/><path d="M246.66666666666666,161.6099639139077C370,161.6099639139077,370,216.60308932505905,493.3333333333333,216.60308932505905" fill="none" stroke="#ccc"/><path d="M246.66666666666666,161.6099639139077C370,161.6099639139077,370,275.36753666581467,493.3333333333333,275.36753666581467" fill="none" stroke="#ccc"/><path d="M246.66666666666666,570.7951513535193C370,570.7951513535193,370,370.30815539944285,493.3333333333333,370.30815539944285" fill="none" stroke="#ccc"/><path d="M246.66666666666666,570.7951513535193C370,570.7951513535193,370,506.4983015484508,493.3333333333333,506.4983015484508" fill="none" stroke="#ccc"/><path d="M246.66666666666666,570.7951513535193C370,570.7951513535193,370,638.0491425029297,493.3333333333333,638.0491425029297" fill="none" stroke="#ccc"/><path d="M246.66666666666666,570.7951513535193C370,570.7951513535193,370,726.0808596618195,493.3333333333333,726.0808596618195" fill="none" stroke="#ccc"/><path d="M246.66666666666666,570.7951513535193C370,570.7951513535193,370,758.3685925369107,493.3333333333333,758.3685925369107" fill="none" stroke="#ccc"/><path d="M246.66666666666666,570.7951513535193C370,570.7951513535193,370,771.2821473075956,493.3333333333333,771.2821473075956" fill="none" stroke="#ccc"/><path d="M493.3333333333333,47.85239116200074C616.6666666666666,47.85239116200074,616.6666666666666,8.717852692404474,740,8.717852692404474" fill="none" stroke="#ccc"/><path d="M493.3333333333333,47.85239116200074C616.6666666666666,47.85239116200074,616.6666666666666,30.28339484714166,740,30.28339484714166" fill="none" stroke="#ccc"/><path d="M493.3333333333333,47.85239116200074C616.6666666666666,47.85239116200074,616.6666666666666,43.40694218096834,740,43.40694218096834" fill="none" stroke="#ccc"/><path d="M493.3333333333333,47.85239116200074C616.6666666666666,47.85239116200074,616.6666666666666,53.24913972358801,740,53.24913972358801" fill="none" stroke="#ccc"/><path d="M493.3333333333333,47.85239116200074C616.6666666666666,47.85239116200074,616.6666666666666,62.551978903511966,740,62.551978903511966" fill="none" stroke="#ccc"/><path d="M493.3333333333333,47.85239116200074C616.6666666666666,47.85239116200074,616.6666666666666,71.00633110471465,740,71.00633110471465" fill="none" stroke="#ccc"/><path d="M493.3333333333333,47.85239116200074C616.6666666666666,47.85239116200074,616.6666666666666,78.9966303681558,740,78.9966303681558" fill="none" stroke="#ccc"/><path d="M493.3333333333333,47.85239116200074C616.6666666666666,47.85239116200074,616.6666666666666,86.98692963159696,740,86.98692963159696" fill="none" stroke="#ccc"/><path d="M493.3333333333333,139.90825196393467C616.6666666666666,139.90825196393467,616.6666666666666,103.85206118321554,740,103.85206118321554" fill="none" stroke="#ccc"/><path d="M493.3333333333333,139.90825196393467C616.6666666666666,139.90825196393467,616.6666666666666,125.86031277822649,740,125.86031277822649" fill="none" stroke="#ccc"/><path d="M493.3333333333333,139.90825196393467C616.6666666666666,139.90825196393467,616.6666666666666,140.20284580892732,740,140.20284580892732" fill="none" stroke="#ccc"/><path d="M493.3333333333333,139.90825196393467C616.6666666666666,139.90825196393467,616.6666666666666,150.16597452696018,740,150.16597452696018" fill="none" stroke="#ccc"/><path d="M493.3333333333333,139.90825196393467C616.6666666666666,139.90825196393467,616.6666666666666,159.25969984896875,740,159.25969984896875" fill="none" stroke="#ccc"/><path d="M493.3333333333333,139.90825196393467C616.6666666666666,139.90825196393467,616.6666666666666,167.78192646073282,740,167.78192646073282" fill="none" stroke="#ccc"/><path d="M493.3333333333333,139.90825196393467C616.6666666666666,139.90825196393467,616.6666666666666,175.9644427446539,740,175.9644427446539" fill="none" stroke="#ccc"/><path d="M493.3333333333333,216.60308932505905C616.6666666666666,216.60308932505905,616.6666666666666,189.7511054691209,740,189.7511054691209" fill="none" stroke="#ccc"/><path d="M493.3333333333333,216.60308932505905C616.6666666666666,216.60308932505905,616.6666666666666,206.98389481208733,740,206.98389481208733" fill="none" stroke="#ccc"/><path d="M493.3333333333333,216.60308932505905C616.6666666666666,216.60308932505905,616.6666666666666,218.76003102187093,740,218.76003102187093" fill="none" stroke="#ccc"/><path d="M493.3333333333333,216.60308932505905C616.6666666666666,216.60308932505905,616.6666666666666,227.28225763363503,740,227.28225763363503" fill="none" stroke="#ccc"/><path d="M493.3333333333333,216.60308932505905C616.6666666666666,216.60308932505905,616.6666666666666,235.46477391755607,740,235.46477391755607" fill="none" stroke="#ccc"/><path d="M493.3333333333333,216.60308932505905C616.6666666666666,216.60308932505905,616.6666666666666,243.45507318099726,740,243.45507318099726" fill="none" stroke="#ccc"/><path d="M493.3333333333333,275.36753666581467C616.6666666666666,275.36753666581467,616.6666666666666,253.05662733466332,740,253.05662733466332" fill="none" stroke="#ccc"/><path d="M493.3333333333333,275.36753666581467C616.6666666666666,275.36753666581467,616.6666666666666,263.4218972190538,740,263.4218972190538" fill="none" stroke="#ccc"/><path d="M493.3333333333333,275.36753666581467C616.6666666666666,275.36753666581467,616.6666666666666,272.749513189451,740,272.749513189451" fill="none" stroke="#ccc"/><path d="M493.3333333333333,275.36753666581467C616.6666666666666,275.36753666581467,616.6666666666666,281.5056304496038,740,281.5056304496038" fill="none" stroke="#ccc"/><path d="M493.3333333333333,275.36753666581467C616.6666666666666,275.36753666581467,616.6666666666666,289.68814673352483,740,289.68814673352483" fill="none" stroke="#ccc"/><path d="M493.3333333333333,275.36753666581467C616.6666666666666,275.36753666581467,616.6666666666666,297.678445996966,740,297.678445996966" fill="none" stroke="#ccc"/><path d="M493.3333333333333,370.30815539944285C616.6666666666666,370.30815539944285,616.6666666666666,309.1148718789066,740,309.1148718789066" fill="none" stroke="#ccc"/><path d="M493.3333333333333,370.30815539944285C616.6666666666666,370.30815539944285,616.6666666666666,323.2346049766229,740,323.2346049766229" fill="none" stroke="#ccc"/><path d="M493.3333333333333,370.30815539944285C616.6666666666666,370.30815539944285,616.6666666666666,336.0692383510439,740,336.0692383510439" fill="none" stroke="#ccc"/><path d="M493.3333333333333,370.30815539944285C616.6666666666666,370.30815539944285,616.6666666666666,347.98203127933016,740,347.98203127933016" fill="none" stroke="#ccc"/><path d="M493.3333333333333,370.30815539944285C616.6666666666666,370.30815539944285,616.6666666666666,359.34505220263725,740,359.34505220263725" fill="none" stroke="#ccc"/><path d="M493.3333333333333,370.30815539944285C616.6666666666666,370.30815539944285,616.6666666666666,370.0216428959589,740,370.0216428959589" fill="none" stroke="#ccc"/><path d="M493.3333333333333,370.30815539944285C616.6666666666666,370.30815539944285,616.6666666666666,380.0903899995128,740,380.0903899995128" fill="none" stroke="#ccc"/><path d="M493.3333333333333,370.30815539944285C616.6666666666666,370.30815539944285,616.6666666666666,389.9325875421325,740,389.9325875421325" fill="none" stroke="#ccc"/><path d="M493.3333333333333,370.30815539944285C616.6666666666666,370.30815539944285,616.6666666666666,398.96359080477487,740,398.96359080477487" fill="none" stroke="#ccc"/><path d="M493.3333333333333,370.30815539944285C616.6666666666666,370.30815539944285,616.6666666666666,407.33832410917586,740,407.33832410917586" fill="none" stroke="#ccc"/><path d="M493.3333333333333,370.30815539944285C616.6666666666666,370.30815539944285,616.6666666666666,415.5208403930969,740,415.5208403930969" fill="none" stroke="#ccc"/><path d="M493.3333333333333,370.30815539944285C616.6666666666666,370.30815539944285,616.6666666666666,423.51113965653803,740,423.51113965653803" fill="none" stroke="#ccc"/><path d="M493.3333333333333,370.30815539944285C616.6666666666666,370.30815539944285,616.6666666666666,431.5014389199792,740,431.5014389199792" fill="none" stroke="#ccc"/><path d="M493.3333333333333,506.4983015484508C616.6666666666666,506.4983015484508,616.6666666666666,443.07320496597004,740,443.07320496597004" fill="none" stroke="#ccc"/><path d="M493.3333333333333,506.4983015484508C616.6666666666666,506.4983015484508,616.6666666666666,457.6224267691585,740,457.6224267691585" fill="none" stroke="#ccc"/><path d="M493.3333333333333,506.4983015484508C616.6666666666666,506.4983015484508,616.6666666666666,470.6251304011165,740,470.6251304011165" fill="none" stroke="#ccc"/><path d="M493.3333333333333,506.4983015484508C616.6666666666666,506.4983015484508,616.6666666666666,482.09966461638413,740,482.09966461638413" fill="none" stroke="#ccc"/><path d="M493.3333333333333,506.4983015484508C616.6666666666666,506.4983015484508,616.6666666666666,492.87246658228014,740,492.87246658228014" fill="none" stroke="#ccc"/><path d="M493.3333333333333,506.4983015484508C616.6666666666666,506.4983015484508,616.6666666666666,502.86862218106245,740,502.86862218106245" fill="none" stroke="#ccc"/><path d="M493.3333333333333,506.4983015484508C616.6666666666666,506.4983015484508,616.6666666666666,512.105162394129,740,512.105162394129" fill="none" stroke="#ccc"/><path d="M493.3333333333333,506.4983015484508C616.6666666666666,506.4983015484508,616.6666666666666,521.1331155715633,740,521.1331155715633" fill="none" stroke="#ccc"/><path d="M493.3333333333333,506.4983015484508C616.6666666666666,506.4983015484508,616.6666666666666,529.7796847932459,740,529.7796847932459" fill="none" stroke="#ccc"/><path d="M493.3333333333333,506.4983015484508C616.6666666666666,506.4983015484508,616.6666666666666,537.9622010771669,740,537.9622010771669" fill="none" stroke="#ccc"/><path d="M493.3333333333333,506.4983015484508C616.6666666666666,506.4983015484508,616.6666666666666,545.952500340608,740,545.952500340608" fill="none" stroke="#ccc"/><path d="M493.3333333333333,506.4983015484508C616.6666666666666,506.4983015484508,616.6666666666666,553.9427996040492,740,553.9427996040492" fill="none" stroke="#ccc"/><path d="M493.3333333333333,506.4983015484508C616.6666666666666,506.4983015484508,616.6666666666666,561.9330988674903,740,561.9330988674903" fill="none" stroke="#ccc"/><path d="M493.3333333333333,506.4983015484508C616.6666666666666,506.4983015484508,616.6666666666666,569.9233981309316,740,569.9233981309316" fill="none" stroke="#ccc"/><path d="M493.3333333333333,638.0491425029297C616.6666666666666,638.0491425029297,616.6666666666666,579.8158594415971,740,579.8158594415971" fill="none" stroke="#ccc"/><path d="M493.3333333333333,638.0491425029297C616.6666666666666,638.0491425029297,616.6666666666666,591.4697875219039,740,591.4697875219039" fill="none" stroke="#ccc"/><path d="M493.3333333333333,638.0491425029297C616.6666666666666,638.0491425029297,616.6666666666666,602.7263104919488,740,602.7263104919488" fill="none" stroke="#ccc"/><path d="M493.3333333333333,638.0491425029297C616.6666666666666,638.0491425029297,616.6666666666666,613.6135255056372,740,613.6135255056372" fill="none" stroke="#ccc"/><path d="M493.3333333333333,638.0491425029297C616.6666666666666,638.0491425029297,616.6666666666666,624.2050973062302,740,624.2050973062302" fill="none" stroke="#ccc"/><path d="M493.3333333333333,638.0491425029297C616.6666666666666,638.0491425029297,616.6666666666666,634.613624017406,740,634.613624017406" fill="none" stroke="#ccc"/><path d="M493.3333333333333,638.0491425029297C616.6666666666666,638.0491425029297,616.6666666666666,644.9565105981619,740,644.9565105981619" fill="none" stroke="#ccc"/><path d="M493.3333333333333,638.0491425029297C616.6666666666666,638.0491425029297,616.6666666666666,655.0183893305737,740,655.0183893305737" fill="none" stroke="#ccc"/><path d="M493.3333333333333,638.0491425029297C616.6666666666666,638.0491425029297,616.6666666666666,664.1290114900177,740,664.1290114900177" fill="none" stroke="#ccc"/><path d="M493.3333333333333,638.0491425029297C616.6666666666666,638.0491425029297,616.6666666666666,672.3115277739387,740,672.3115277739387" fill="none" stroke="#ccc"/><path d="M493.3333333333333,638.0491425029297C616.6666666666666,638.0491425029297,616.6666666666666,680.3018270373799,740,680.3018270373799" fill="none" stroke="#ccc"/><path d="M493.3333333333333,638.0491425029297C616.6666666666666,638.0491425029297,616.6666666666666,688.292126300821,740,688.292126300821" fill="none" stroke="#ccc"/><path d="M493.3333333333333,638.0491425029297C616.6666666666666,638.0491425029297,616.6666666666666,696.2824255642622,740,696.2824255642622" fill="none" stroke="#ccc"/><path d="M493.3333333333333,726.0808596618195C616.6666666666666,726.0808596618195,616.6666666666666,706.7066815574134,740,706.7066815574134" fill="none" stroke="#ccc"/><path d="M493.3333333333333,726.0808596618195C616.6666666666666,726.0808596618195,616.6666666666666,718.8434858254719,740,718.8434858254719" fill="none" stroke="#ccc"/><path d="M493.3333333333333,726.0808596618195C616.6666666666666,726.0808596618195,616.6666666666666,729.010386301582,740,729.010386301582" fill="none" stroke="#ccc"/><path d="M493.3333333333333,726.0808596618195C616.6666666666666,726.0808596618195,616.6666666666666,737.4647385027848,740,737.4647385027848" fill="none" stroke="#ccc"/><path d="M493.3333333333333,726.0808596618195C616.6666666666666,726.0808596618195,616.6666666666666,745.4550377662259,740,745.4550377662259" fill="none" stroke="#ccc"/><path d="M493.3333333333333,758.3685925369107C616.6666666666666,758.3685925369107,616.6666666666666,753.9093899674286,740,753.9093899674286" fill="none" stroke="#ccc"/><path d="M493.3333333333333,758.3685925369107C616.6666666666666,758.3685925369107,616.6666666666666,762.8277951063927,740,762.8277951063927" fill="none" stroke="#ccc"/><path d="M493.3333333333333,771.2821473075956C616.6666666666666,771.2821473075956,616.6666666666666,771.2821473075956,740,771.2821473075956" fill="none" stroke="#ccc"/></g><g id="nodes"><g transform="translate(0,366.20255763371347)"><circle fill="rgb(0, 0, 0)" r="5"/><text text-anchor="end" dominant-baseline="text-before-edge" transform="translate(0,0)"><tspan x="-8" y="0" dy="0" style="font-family: Arial, sans-serif; font-size: 10px; fill: black; font-weight: normal;"/></text></g><g id="Plantae" transform="translate(246.66666666666666,161.6099639139077)"><circle fill="rgb(0, 0, 0)" r="5"/><text text-anchor="end" dominant-baseline="text-before-edge" transform="translate(0,-5.5)"><tspan x="-8" y="0" dy="0" style="font-family: Arial, sans-serif; font-size: 10px; fill: black; font-weight: normal;">Plantae</tspan></text></g><g id="Animalia" transform="translate(246.66666666666666,570.7951513535193)"><circle fill="rgb(0, 0, 0)" r="5"/><text text-anchor="end" dominant-baseline="text-before-edge" transform="translate(0,-5.5)"><tspan x="-8" y="0" dy="0" style="font-family: Arial, sans-serif; font-size: 10px; fill: black; font-weight: normal;">Animalia</tspan></text></g><g id="Vulnerable" transform="translate(493.3333333333333,47.85239116200074)"><circle fill="rgb(0, 0, 0)" r="5"/><text text-anchor="end" dominant-baseline="text-before-edge" transform="translate(0,-5.5)"><tspan x="-8" y="0" dy="0" style="font-family: Arial, sans-serif; font-size: 10px; fill: black; font-weight: normal;">Vulnerable</tspan></text></g><g id="Endangered" transform="translate(493.3333333333333,139.90825196393467)"><circle fill="rgb(0, 0, 0)" r="5"/><text text-anchor="end" dominant-baseline="text-before-edge" transform="translate(0,-5.55224609375)"><tspan x="-8" y="0" dy="0" style="font-family: Arial, sans-serif; font-size: 10px; fill: black; font-weight: normal;">Endangered</tspan></text></g><g id="Critically Endangered" transform="translate(493.3333333333333,216.60308932505905)"><circle fill="rgb(0, 0, 0)" r="5"/><text text-anchor="end" dominant-baseline="text-before-edge" transform="translate(0,-5.55224609375)"><tspan x="-8" y="0" dy="0" style="font-family: Arial, sans-serif; font-size: 10px; fill: black; font-weight: normal;">Critically Endangered</tspan></text></g><g id="Extinct" transform="translate(493.3333333333333,275.36753666581467)"><circle fill="rgb(0, 0, 0)" r="5"/><text text-anchor="end" dominant-baseline="text-before-edge" transform="translate(0,-5.5)"><tspan x="-8" y="0" dy="0" style="font-family: Arial, sans-serif; font-size: 10px; fill: black; font-weight: normal;">Extinct</tspan></text></g><g id="Endangered" transform="translate(493.3333333333333,370.30815539944285)"><circle fill="rgb(0, 0, 0)" r="5"/><text text-anchor="end" dominant-baseline="text-before-edge" transform="translate(0,-5.55224609375)"><tspan x="-8" y="0" dy="0" style="font-family: Arial, sans-serif; font-size: 10px; fill: black; font-weight: normal;">Endangered</tspan></text></g><g id="Vulnerable" transform="translate(493.3333333333333,506.4983015484508)"><circle fill="rgb(0, 0, 0)" r="5"/><text text-anchor="end" dominant-baseline="text-before-edge" transform="translate(0,-5.5)"><tspan x="-8" y="0" dy="0" style="font-family: Arial, sans-serif; font-size: 10px; fill: black; font-weight: normal;">Vulnerable</tspan></text></g><g id="Critically Endangered" transform="translate(493.3333333333333,638.0491425029297)"><circle fill="rgb(0, 0, 0)" r="5"/><text text-anchor="end" dominant-baseline="text-before-edge" transform="translate(0,-5.55224609375)"><tspan x="-8" y="0" dy="0" style="font-family: Arial, sans-serif; font-size: 10px; fill: black; font-weight: normal;">Critically Endangered</tspan></text></g><g id="Extinct" transform="translate(493.3333333333333,726.0808596618195)"><circle fill="rgb(0, 0, 0)" r="5"/><text text-anchor="end" dominant-baseline="text-before-edge" transform="translate(0,-5.5)"><tspan x="-8" y="0" dy="0" style="font-family: Arial, sans-serif; font-size: 10px; fill: black; font-weight: normal;">Extinct</tspan></text></g><g id="Conservation Dependent" transform="translate(493.3333333333333,758.3685925369107)"><circle fill="rgb(0, 0, 0)" r="5"/><text text-anchor="end" dominant-baseline="text-before-edge" transform="translate(0,-5.5)"><tspan x="-8" y="0" dy="0" style="font-family: Arial, sans-serif; font-size: 10px; fill: black; font-weight: normal;">Conservation Dependent</tspan></text></g><g id="Extinct in the wild" transform="translate(493.3333333333333,771.2821473075956)"><circle fill="rgb(0, 0, 0)" r="5"/><text text-anchor="end" dominant-baseline="text-before-edge" transform="translate(0,-5.5)"><tspan x="-8" y="0" dy="0" style="font-family: Arial, sans-serif; font-size: 10px; fill: black; font-weight: normal;">Extinct in the wild</tspan></text></g><g id="Magnoliopsida" transform="translate(740,8.717852692404474)"><circle fill="rgb(0, 0, 0)" r="10"/><text text-anchor="start" dominant-baseline="text-before-edge" transform="translate(0,0)"/></g><g id="Liliopsida" transform="translate(740,30.28339484714166)"><circle fill="rgb(0, 0, 0)" r="4.635863249727653"/><text text-anchor="start" dominant-baseline="text-before-edge" transform="translate(0,0)"/></g><g id="Polypodiatae" transform="translate(740,43.40694218096834)"><circle fill="rgb(0, 0, 0)" r="1.480872194397731"/><text text-anchor="start" dominant-baseline="text-before-edge" transform="translate(0,0)"/></g><g id="Cycadatae" transform="translate(740,53.24913972358801)"><circle fill="rgb(0, 0, 0)" r="1.3245323570650438"/><text text-anchor="start" dominant-baseline="text-before-edge" transform="translate(0,0)"/></g><g id="Lycopodopiatae" transform="translate(740,62.551978903511966)"><circle fill="rgb(0, 0, 0)" r="0.936585811581694"/><text text-anchor="start" dominant-baseline="text-before-edge" transform="translate(0,0)"/></g><g id="Pinatae" transform="translate(740,71.00633110471465)"><circle fill="rgb(0, 0, 0)" r="0.468292905790847"/><text text-anchor="start" dominant-baseline="text-before-edge" transform="translate(0,0)"/></g><g id="Psilotatae" transform="translate(740,78.9966303681558)"><circle fill="rgb(0, 0, 0)" r="0.468292905790847"/><text text-anchor="start" dominant-baseline="text-before-edge" transform="translate(0,0)"/></g><g id="Bryopsida" transform="translate(740,86.98692963159696)"><circle fill="rgb(0, 0, 0)" r="0.468292905790847"/><text text-anchor="start" dominant-baseline="text-before-edge" transform="translate(0,0)"/></g><g id="Magnoliopsida" transform="translate(740,103.85206118321554)"><circle fill="rgb(0, 0, 0)" r="9.42421293656315"/><text text-anchor="start" dominant-baseline="text-before-edge" transform="translate(0,0)"/></g><g id="Liliopsida" transform="translate(740,125.86031277822649)"><circle fill="rgb(0, 0, 0)" r="5.658404709778996"/><text text-anchor="start" dominant-baseline="text-before-edge" transform="translate(0,0)"/></g><g id="Polypodiatae" transform="translate(740,140.20284580892732)"><circle fill="rgb(0, 0, 0)" r="1.6884540837649262"/><text text-anchor="start" dominant-baseline="text-before-edge" transform="translate(0,0)"/></g><g id="Cycadatae" transform="translate(740,150.16597452696018)"><circle fill="rgb(0, 0, 0)" r="1.2389865694583804"/><text text-anchor="start" dominant-baseline="text-before-edge" transform="translate(0,0)"/></g><g id="Lycopodopiatae" transform="translate(740,159.25969984896875)"><circle fill="rgb(0, 0, 0)" r="0.8111071056538126"/><text text-anchor="start" dominant-baseline="text-before-edge" transform="translate(0,0)"/></g><g id="Pinatae" transform="translate(740,167.78192646073282)"><circle fill="rgb(0, 0, 0)" r="0.6622661785325219"/><text text-anchor="start" dominant-baseline="text-before-edge" transform="translate(0,0)"/></g><g id="Streptophyta (no class)" transform="translate(740,175.9644427446539)"><circle fill="rgb(0, 0, 0)" r="0.468292905790847"/><text text-anchor="start" dominant-baseline="text-before-edge" transform="translate(0,0)"/></g><g id="Magnoliopsida" transform="translate(740,189.7511054691209)"><circle fill="rgb(0, 0, 0)" r="6.317616694747663"/><text text-anchor="start" dominant-baseline="text-before-edge" transform="translate(0,0)"/></g><g id="Liliopsida" transform="translate(740,206.98389481208733)"><circle fill="rgb(0, 0, 0)" r="3.945906161909644"/><text text-anchor="start" dominant-baseline="text-before-edge" transform="translate(0,0)"/></g><g id="Polypodiatae" transform="translate(740,218.76003102187093)"><circle fill="rgb(0, 0, 0)" r="0.8111071056538126"/><text text-anchor="start" dominant-baseline="text-before-edge" transform="translate(0,0)"/></g><g id="Pinatae" transform="translate(740,227.28225763363503)"><circle fill="rgb(0, 0, 0)" r="0.6622661785325219"/><text text-anchor="start" dominant-baseline="text-before-edge" transform="translate(0,0)"/></g><g id="Lycopodopiatae" transform="translate(740,235.46477391755607)"><circle fill="rgb(0, 0, 0)" r="0.468292905790847"/><text text-anchor="start" dominant-baseline="text-before-edge" transform="translate(0,0)"/></g><g id="Streptophyta (no class)" transform="translate(740,243.45507318099726)"><circle fill="rgb(0, 0, 0)" r="0.468292905790847"/><text text-anchor="start" dominant-baseline="text-before-edge" transform="translate(0,0)"/></g><g id="Magnoliopsida" transform="translate(740,253.05662733466332)"><circle fill="rgb(0, 0, 0)" r="2.0942695414584778"/><text text-anchor="start" dominant-baseline="text-before-edge" transform="translate(0,0)"/></g><g id="Liliopsida" transform="translate(740,263.4218972190538)"><circle fill="rgb(0, 0, 0)" r="1.2389865694583804"/><text text-anchor="start" dominant-baseline="text-before-edge" transform="translate(0,0)"/></g><g id="Polypodiatae" transform="translate(740,272.749513189451)"><circle fill="rgb(0, 0, 0)" r="1.0471347707292389"/><text text-anchor="start" dominant-baseline="text-before-edge" transform="translate(0,0)"/></g><g id="Lycopodopiatae" transform="translate(740,281.5056304496038)"><circle fill="rgb(0, 0, 0)" r="0.6622661785325219"/><text text-anchor="start" dominant-baseline="text-before-edge" transform="translate(0,0)"/></g><g id="Psilotatae" transform="translate(740,289.68814673352483)"><circle fill="rgb(0, 0, 0)" r="0.468292905790847"/><text text-anchor="start" dominant-baseline="text-before-edge" transform="translate(0,0)"/></g><g id="Rhodophyceae" transform="translate(740,297.678445996966)"><circle fill="rgb(0, 0, 0)" r="0.468292905790847"/><text text-anchor="start" dominant-baseline="text-before-edge" transform="translate(0,0)"/></g><g id="Aves" transform="translate(740,309.1148718789066)"><circle fill="rgb(0, 0, 0)" r="3.945906161909644"/><text text-anchor="start" dominant-baseline="text-before-edge" transform="translate(0,0)"/></g><g id="Mammalia" transform="translate(740,323.2346049766229)"><circle fill="rgb(0, 0, 0)" r="3.1761170158301177"/><text text-anchor="start" dominant-baseline="text-before-edge" transform="translate(0,0)"/></g><g id="Reptilia" transform="translate(740,336.0692383510439)"><circle fill="rgb(0, 0, 0)" r="2.6490647141300876"/><text text-anchor="start" dominant-baseline="text-before-edge" transform="translate(0,0)"/></g><g id="Actinopterygii" transform="translate(740,347.98203127933016)"><circle fill="rgb(0, 0, 0)" r="2.2458538797354572"/><text text-anchor="start" dominant-baseline="text-before-edge" transform="translate(0,0)"/></g><g id="Malacostraca" transform="translate(740,359.34505220263725)"><circle fill="rgb(0, 0, 0)" r="2.0942695414584778"/><text text-anchor="start" dominant-baseline="text-before-edge" transform="translate(0,0)"/></g><g id="Amphibia" transform="translate(740,370.0216428959589)"><circle fill="rgb(0, 0, 0)" r="1.5531518604934889"/><text text-anchor="start" dominant-baseline="text-before-edge" transform="translate(0,0)"/></g><g id="Insecta" transform="translate(740,380.0903899995128)"><circle fill="rgb(0, 0, 0)" r="1.480872194397731"/><text text-anchor="start" dominant-baseline="text-before-edge" transform="translate(0,0)"/></g><g id="Gastropoda" transform="translate(740,389.9325875421325)"><circle fill="rgb(0, 0, 0)" r="1.3245323570650438"/><text text-anchor="start" dominant-baseline="text-before-edge" transform="translate(0,0)"/></g><g id="Chondrichthyes" transform="translate(740,398.96359080477487)"><circle fill="rgb(0, 0, 0)" r="0.6622661785325219"/><text text-anchor="start" dominant-baseline="text-before-edge" transform="translate(0,0)"/></g><g id="Arachnida" transform="translate(740,407.33832410917586)"><circle fill="rgb(0, 0, 0)" r="0.6622661785325219"/><text text-anchor="start" dominant-baseline="text-before-edge" transform="translate(0,0)"/></g><g id="Anthozoa" transform="translate(740,415.5208403930969)"><circle fill="rgb(0, 0, 0)" r="0.468292905790847"/><text text-anchor="start" dominant-baseline="text-before-edge" transform="translate(0,0)"/></g><g id="Cephalaspidomorphi" transform="translate(740,423.51113965653803)"><circle fill="rgb(0, 0, 0)" r="0.468292905790847"/><text text-anchor="start" dominant-baseline="text-before-edge" transform="translate(0,0)"/></g><g id="Onychophora (no class)" transform="translate(740,431.5014389199792)"><circle fill="rgb(0, 0, 0)" r="0.468292905790847"/><text text-anchor="start" dominant-baseline="text-before-edge" transform="translate(0,0)"/></g><g id="Aves" transform="translate(740,443.07320496597004)"><circle fill="rgb(0, 0, 0)" r="4.08248290463863"/><text text-anchor="start" dominant-baseline="text-before-edge" transform="translate(0,0)"/></g><g id="Mammalia" transform="translate(740,457.6224267691585)"><circle fill="rgb(0, 0, 0)" r="3.472953139443711"/><text text-anchor="start" dominant-baseline="text-before-edge" transform="translate(0,0)"/></g><g id="Reptilia" transform="translate(740,470.6251304011165)"><circle fill="rgb(0, 0, 0)" r="2.521834475695623"/><text text-anchor="start" dominant-baseline="text-before-edge" transform="translate(0,0)"/></g><g id="Amphibia" transform="translate(740,482.09966461638413)"><circle fill="rgb(0, 0, 0)" r="1.9308211143030825"/><text text-anchor="start" dominant-baseline="text-before-edge" transform="translate(0,0)"/></g><g id="Actinopterygii" transform="translate(740,492.87246658228014)"><circle fill="rgb(0, 0, 0)" r="1.8136906252750293"/><text text-anchor="start" dominant-baseline="text-before-edge" transform="translate(0,0)"/></g><g id="Chondrichthyes" transform="translate(740,502.86862218106245)"><circle fill="rgb(0, 0, 0)" r="1.1470786693528088"/><text text-anchor="start" dominant-baseline="text-before-edge" transform="translate(0,0)"/></g><g id="Insecta" transform="translate(740,512.105162394129)"><circle fill="rgb(0, 0, 0)" r="1.0471347707292389"/><text text-anchor="start" dominant-baseline="text-before-edge" transform="translate(0,0)"/></g><g id="Malacostraca" transform="translate(740,521.1331155715633)"><circle fill="rgb(0, 0, 0)" r="0.936585811581694"/><text text-anchor="start" dominant-baseline="text-before-edge" transform="translate(0,0)"/></g><g id="Arachnida" transform="translate(740,529.7796847932459)"><circle fill="rgb(0, 0, 0)" r="0.6622661785325219"/><text text-anchor="start" dominant-baseline="text-before-edge" transform="translate(0,0)"/></g><g id="Oligochaeta" transform="translate(740,537.9622010771669)"><circle fill="rgb(0, 0, 0)" r="0.468292905790847"/><text text-anchor="start" dominant-baseline="text-before-edge" transform="translate(0,0)"/></g><g id="Asteroidea" transform="translate(740,545.952500340608)"><circle fill="rgb(0, 0, 0)" r="0.468292905790847"/><text text-anchor="start" dominant-baseline="text-before-edge" transform="translate(0,0)"/></g><g id="Bivalvia" transform="translate(740,553.9427996040492)"><circle fill="rgb(0, 0, 0)" r="0.468292905790847"/><text text-anchor="start" dominant-baseline="text-before-edge" transform="translate(0,0)"/></g><g id="Remipedia" transform="translate(740,561.9330988674903)"><circle fill="rgb(0, 0, 0)" r="0.468292905790847"/><text text-anchor="start" dominant-baseline="text-before-edge" transform="translate(0,0)"/></g><g id="Sarcopterygii" transform="translate(740,569.9233981309316)"><circle fill="rgb(0, 0, 0)" r="0.468292905790847"/><text text-anchor="start" dominant-baseline="text-before-edge" transform="translate(0,0)"/></g><g id="Reptilia" transform="translate(740,579.8158594415971)"><circle fill="rgb(0, 0, 0)" r="2.387834664704596"/><text text-anchor="start" dominant-baseline="text-before-edge" transform="translate(0,0)"/></g><g id="Actinopterygii" transform="translate(740,591.4697875219039)"><circle fill="rgb(0, 0, 0)" r="2.2458538797354572"/><text text-anchor="start" dominant-baseline="text-before-edge" transform="translate(0,0)"/></g><g id="Amphibia" transform="translate(740,602.7263104919488)"><circle fill="rgb(0, 0, 0)" r="1.9867985355975657"/><text text-anchor="start" dominant-baseline="text-before-edge" transform="translate(0,0)"/></g><g id="Aves" transform="translate(740,613.6135255056372)"><circle fill="rgb(0, 0, 0)" r="1.873171623163388"/><text text-anchor="start" dominant-baseline="text-before-edge" transform="translate(0,0)"/></g><g id="Malacostraca" transform="translate(740,624.2050973062302)"><circle fill="rgb(0, 0, 0)" r="1.6884540837649262"/><text text-anchor="start" dominant-baseline="text-before-edge" transform="translate(0,0)"/></g><g id="Gastropoda" transform="translate(740,634.613624017406)"><circle fill="rgb(0, 0, 0)" r="1.6884540837649262"/><text text-anchor="start" dominant-baseline="text-before-edge" transform="translate(0,0)"/></g><g id="Insecta" transform="translate(740,644.9565105981619)"><circle fill="rgb(0, 0, 0)" r="1.6222142113076252"/><text text-anchor="start" dominant-baseline="text-before-edge" transform="translate(0,0)"/></g><g id="Mammalia" transform="translate(740,655.0183893305737)"><circle fill="rgb(0, 0, 0)" r="1.404878717372541"/><text text-anchor="start" dominant-baseline="text-before-edge" transform="translate(0,0)"/></g><g id="Chondrichthyes" transform="translate(740,664.1290114900177)"><circle fill="rgb(0, 0, 0)" r="0.6622661785325219"/><text text-anchor="start" dominant-baseline="text-before-edge" transform="translate(0,0)"/></g><g id="Arachnida" transform="translate(740,672.3115277739387)"><circle fill="rgb(0, 0, 0)" r="0.468292905790847"/><text text-anchor="start" dominant-baseline="text-before-edge" transform="translate(0,0)"/></g><g id="Oligochaeta" transform="translate(740,680.3018270373799)"><circle fill="rgb(0, 0, 0)" r="0.468292905790847"/><text text-anchor="start" dominant-baseline="text-before-edge" transform="translate(0,0)"/></g><g id="Asteroidea" transform="translate(740,688.292126300821)"><circle fill="rgb(0, 0, 0)" r="0.468292905790847"/><text text-anchor="start" dominant-baseline="text-before-edge" transform="translate(0,0)"/></g><g id="Bivalvia" transform="translate(740,696.2824255642622)"><circle fill="rgb(0, 0, 0)" r="0.468292905790847"/><text text-anchor="start" dominant-baseline="text-before-edge" transform="translate(0,0)"/></g><g id="Mammalia" transform="translate(740,706.7066815574134)"><circle fill="rgb(0, 0, 0)" r="2.924488259328009"/><text text-anchor="start" dominant-baseline="text-before-edge" transform="translate(0,0)"/></g><g id="Aves" transform="translate(740,718.8434858254719)"><circle fill="rgb(0, 0, 0)" r="2.1964884255348975"/><text text-anchor="start" dominant-baseline="text-before-edge" transform="translate(0,0)"/></g><g id="Amphibia" transform="translate(740,729.010386301582)"><circle fill="rgb(0, 0, 0)" r="0.936585811581694"/><text text-anchor="start" dominant-baseline="text-before-edge" transform="translate(0,0)"/></g><g id="Reptilia" transform="translate(740,737.4647385027848)"><circle fill="rgb(0, 0, 0)" r="0.468292905790847"/><text text-anchor="start" dominant-baseline="text-before-edge" transform="translate(0,0)"/></g><g id="Oligochaeta" transform="translate(740,745.4550377662259)"><circle fill="rgb(0, 0, 0)" r="0.468292905790847"/><text text-anchor="start" dominant-baseline="text-before-edge" transform="translate(0,0)"/></g><g id="Actinopterygii" transform="translate(740,753.9093899674286)"><circle fill="rgb(0, 0, 0)" r="0.936585811581694"/><text text-anchor="start" dominant-baseline="text-before-edge" transform="translate(0,0)"/></g><g id="Chondrichthyes" transform="translate(740,762.8277951063927)"><circle fill="rgb(0, 0, 0)" r="0.936585811581694"/><text text-anchor="start" dominant-baseline="text-before-edge" transform="translate(0,0)"/></g><g id="Actinopterygii" transform="translate(740,771.2821473075956)"><circle fill="rgb(0, 0, 0)" r="0.468292905790847"/><text text-anchor="start" dominant-baseline="text-before-edge" transform="translate(0,0)"/></g></g></g></svg>